# xmcd CD database file
#
# Track frame offsets:
#	183
#	14040
#	25983
#	41608
#	53123
#	64103
#	75083
#	89055
#	104870
#	118103
#	128670
#	144898
#	157625
#	168720
#	181983
#	191888
#
# Disc length: 2721 seconds
#
# Revision: 0
# Processed by: cddbd v1.4PL0 Copyright (c) Steve Scherf et al.
# Submitted via: Feurio! 1.67 - http://www.feurio.com
#
DISCID=d90a9f10
DTITLE=Jerry Lee Lewis - Pretty Much Country
DYEAR=1992
DGENRE=Country
TTITLE0=Honky Tonk Heaven
TTITLE1=She Never Said Goodbye
TTITLE2=That Was The Way It Was Then
TTITLE3=Candy Kisses
TTITLE4=I Am What I Am
TTITLE5=Come As You Were
TTITLE6=She Sang Amazing Grace
TTITLE7=Have I Got A Song For You
TTITLE8=Daughters Of Dixie
TTITLE9=Send Me The Pillow You Dream On
TTITLE10=She Sure Makes Leavin' Look Easy
TTITLE11=My Fingers Do The Talkin'
TTITLE12=Honky Tonk Heart
TTITLE13=Careless Hands
TTITLE14=Honky Tonk Rock'n'Roll Piano Man
TTITLE15=Forever Forgiving
EXTD=
EXTT0=
EXTT1=
EXTT2=
EXTT3=
EXTT4=
EXTT5=
EXTT6=
EXTT7=
EXTT8=
EXTT9=
EXTT10=
EXTT11=
EXTT12=
EXTT13=
EXTT14=
EXTT15=
PLAYORDER=
